<?xml version="1.0" encoding="UTF-8"?>
<!DOCTYPE svg PUBLIC "-//W3C//DTD SVG 1.1//EN" "http://www.w3.org/Graphics/SVG/1.1/DTD/svg11.dtd">
<svg xmlns="http://www.w3.org/2000/svg" xmlns:xlink="http://www.w3.org/1999/xlink" version="1.1" width="659px" height="203px" viewBox="-0.5 -0.5 659 203" style="background-color: rgb(255, 255, 255);"><defs/><g><rect x="186" y="1" width="470" height="200" fill="#ffffff" stroke="#000000" pointer-events="all"/><path d="M 361 101 L 321 101" fill="none" stroke="#000000" stroke-miterlimit="10" pointer-events="stroke"/><path d="M 481 101 L 501 101 L 501 51 L 521 51" fill="none" stroke="#000000" stroke-miterlimit="10" pointer-events="stroke"/><path d="M 481 101 L 501 101 L 501 151 L 521 151" fill="none" stroke="#000000" stroke-miterlimit="10" pointer-events="stroke"/><path d="M 361 101 L 321 101" fill="none" stroke="#000000" stroke-miterlimit="10" pointer-events="stroke"/><path d="M 581 121 L 581 81" fill="none" stroke="#000000" stroke-miterlimit="10" pointer-events="stroke"/><rect x="521" y="121" width="120" height="60" fill="#ffffff" stroke="#000000" pointer-events="all"/><g fill="#000000" font-family="Helvetica" text-anchor="middle" font-size="12px"><text x="580.5" y="148.5">Companion</text><text x="580.5" y="162.5">Computer</text></g><rect x="1" y="21" width="120" height="160" fill="#ffffff" stroke="#000000" pointer-events="all"/><g fill="#000000" font-family="Helvetica" text-anchor="middle" font-size="12px"><text x="60.5" y="98.5">Ground Control</text><text x="60.5" y="112.5">Station</text></g><path d="M 201 103 L 121 103 M 121 99 L 201 99 M 121 99" fill="none" stroke="#000000" stroke-miterlimit="10" stroke-dasharray="3 3" pointer-events="all"/><rect x="201" y="76" width="120" height="50" fill="#ffffff" stroke="#000000" pointer-events="all"/><g fill="#000000" font-family="Helvetica" text-anchor="middle" font-size="12px"><text x="260.5" y="105.5">Telemetry Radio</text></g><rect x="521" y="21" width="120" height="60" fill="#ffffff" stroke="#000000" pointer-events="all"/><g fill="#000000" font-family="Helvetica" text-anchor="middle" font-size="12px"><text x="580.5" y="55.5">Flight Sensors</text></g><rect x="361" y="21" width="120" height="160" fill="#ffffff" stroke="#000000" pointer-events="all"/><g fill="#000000" font-family="Helvetica" text-anchor="middle" font-size="12px"><text x="420.5" y="105.5">Flight Control Unit</text></g><path d="M 521 151 L 501 151 L 501 101 L 481 101" fill="none" stroke="#000000" stroke-miterlimit="10" pointer-events="stroke"/></g></svg>