<?xml version="1.0" encoding="UTF-8"?>
<!DOCTYPE svg PUBLIC "-//W3C//DTD SVG 1.1//EN" "http://www.w3.org/Graphics/SVG/1.1/DTD/svg11.dtd">
<svg xmlns="http://www.w3.org/2000/svg" xmlns:xlink="http://www.w3.org/1999/xlink" version="1.1" width="573px" height="183px" viewBox="-0.5 -0.5 573 183" style="background-color: rgb(255, 255, 255);"><defs/><g><rect x="151" y="81" width="420" height="100" fill="#ffffff" stroke="#000000" pointer-events="all"/><g fill="#000000" font-family="Helvetica" text-anchor="middle" font-size="12px"><text x="360.5" y="135.5">ROS</text></g><path d="M 289.12 31 L 312.88 31" fill="none" stroke="#000000" stroke-miterlimit="10" pointer-events="stroke"/><path d="M 282.12 31 L 289.12 27.5 L 289.12 34.5 Z" fill="#000000" stroke="#000000" stroke-miterlimit="10" pointer-events="all"/><path d="M 319.88 31 L 312.88 34.5 L 312.88 27.5 Z" fill="#000000" stroke="#000000" stroke-miterlimit="10" pointer-events="all"/><path d="M 221 69.12 L 221 92.88" fill="none" stroke="#000000" stroke-miterlimit="10" pointer-events="stroke"/><path d="M 221 62.12 L 224.5 69.12 L 217.5 69.12 Z" fill="#000000" stroke="#000000" stroke-miterlimit="10" pointer-events="all"/><path d="M 221 99.88 L 217.5 92.88 L 224.5 92.88 Z" fill="#000000" stroke="#000000" stroke-miterlimit="10" pointer-events="all"/><rect x="161" y="1" width="120" height="60" fill="#ffffff" stroke="#000000" pointer-events="all"/><g fill="#000000" font-family="Helvetica" text-anchor="middle" font-size="12px"><text x="220.5" y="35.5">ArduPilot SITL</text></g><path d="M 501 69.12 L 501 92.88" fill="none" stroke="#000000" stroke-miterlimit="10" pointer-events="stroke"/><path d="M 501 62.12 L 504.5 69.12 L 497.5 69.12 Z" fill="#000000" stroke="#000000" stroke-miterlimit="10" pointer-events="all"/><path d="M 501 99.88 L 497.5 92.88 L 504.5 92.88 Z" fill="#000000" stroke="#000000" stroke-miterlimit="10" pointer-events="all"/><rect x="441" y="1" width="120" height="60" fill="#ffffff" stroke="#000000" pointer-events="all"/><g fill="#000000" font-family="Helvetica" text-anchor="middle" font-size="12px"><text x="500.5" y="35.5">Gazebo</text></g><path d="M 129.12 31 L 152.88 31" fill="none" stroke="#000000" stroke-miterlimit="10" pointer-events="stroke"/><path d="M 122.12 31 L 129.12 27.5 L 129.12 34.5 Z" fill="#000000" stroke="#000000" stroke-miterlimit="10" pointer-events="all"/><path d="M 159.88 31 L 152.88 34.5 L 152.88 27.5 Z" fill="#000000" stroke="#000000" stroke-miterlimit="10" pointer-events="all"/><rect x="1" y="1" width="120" height="60" fill="#ffffff" stroke="#000000" pointer-events="all"/><g fill="#000000" font-family="Helvetica" text-anchor="middle" font-size="12px"><text x="60.5" y="35.5">MAVProxy</text></g><ellipse cx="221" cy="131" rx="50" ry="30" fill="#ffffff" stroke="#000000" pointer-events="all"/><g fill="#000000" font-family="Helvetica" text-anchor="middle" font-size="12px"><text x="220.5" y="135.5">mavros</text></g><ellipse cx="501" cy="131" rx="50" ry="30" fill="#ffffff" stroke="#000000" pointer-events="all"/><g fill="#000000" font-family="Helvetica" text-anchor="middle" font-size="12px"><text x="500.5" y="135.5">gazebo_ros</text></g><rect x="321" y="1" width="120" height="60" fill="#ffffff" stroke="#000000" pointer-events="all"/><g fill="#000000" font-family="Helvetica" text-anchor="middle" font-size="12px"><text x="380.5" y="28.5">ArduPilot-Gazebo</text><text x="380.5" y="42.5">Plugin</text></g></g></svg>